<?xml version="1.0" encoding="utf-8"?>
<!-- Generator: Adobe Illustrator 18.1.1, SVG Export Plug-In . SVG Version: 6.00 Build 0)  -->
<!DOCTYPE svg PUBLIC "-//W3C//DTD SVG 1.1//EN" "http://www.w3.org/Graphics/SVG/1.1/DTD/svg11.dtd">
<svg version="1.1" id="Layer_1" xmlns="http://www.w3.org/2000/svg" xmlns:xlink="http://www.w3.org/1999/xlink" x="0px" y="0px"
	 width="344.3px" height="266.1px" viewBox="0 0 344.3 266.1" style="enable-background:new 0 0 344.3 266.1;" xml:space="preserve"
	>
<style type="text/css">
	.st0{fill:#FFFFFF;}
	.st1{fill:none;stroke:#FFFFFF;stroke-width:3;stroke-linejoin:round;stroke-miterlimit:10;}
	.st2{fill:none;stroke:#FFFFFF;stroke-width:3;stroke-miterlimit:10;}
</style>
<g>
	<g>
		<path class="st0" d="M113.2,186.7h-2.9v-2c-1.2,1.5-2.9,2.2-5,2.2c-1.5,0-2.8-0.4-3.9-1.3s-1.5-2-1.5-3.5c0-1.5,0.5-2.6,1.6-3.3
			c1.1-0.7,2.5-1.1,4.4-1.1h4.1v-0.6c0-2-1.1-3-3.3-3c-1.4,0-2.8,0.5-4.3,1.5l-1.4-2c1.8-1.4,3.9-2.2,6.2-2.2c1.8,0,3.2,0.4,4.3,1.3
			s1.7,2.3,1.7,4.2V186.7z M110.1,181.2v-1.3h-3.5c-2.3,0-3.4,0.7-3.4,2.1c0,0.7,0.3,1.3,0.8,1.7s1.3,0.6,2.3,0.6
			c1,0,1.9-0.3,2.6-0.8C109.7,182.9,110.1,182.1,110.1,181.2z"/>
		<path class="st0" d="M129.1,174.3v7.6c0,0.7,0.2,1.3,0.6,1.7c0.4,0.4,0.9,0.6,1.6,0.6s1.3-0.3,1.9-1l1.3,2.2
			c-1.1,1-2.3,1.5-3.7,1.5c-1.3,0-2.5-0.5-3.4-1.4c-0.9-0.9-1.4-2.2-1.4-3.7v-7.5h-1.9v-2.5h1.9v-4.7h3.1v4.7h3.9v2.5H129.1z"/>
		<path class="st0" d="M140.1,178.6v8.1H137V166h3.1v8.6c0.4-0.9,1.1-1.6,2-2.2s1.9-0.8,2.9-0.8c1.7,0,3,0.5,4.1,1.5
			c1,1,1.6,2.5,1.6,4.5v9.1h-3.1v-8.2c0-2.7-1.1-4.1-3.4-4.1c-1.1,0-2,0.4-2.8,1.1C140.5,176.2,140.1,177.3,140.1,178.6z"/>
		<path class="st0" d="M155.3,168.8c-0.4-0.4-0.6-0.9-0.6-1.4c0-0.5,0.2-1,0.6-1.4c0.4-0.4,0.9-0.6,1.4-0.6c0.5,0,1,0.2,1.4,0.6
			c0.4,0.4,0.6,0.9,0.6,1.4c0,0.5-0.2,1-0.6,1.4c-0.4,0.4-0.9,0.6-1.4,0.6C156.1,169.4,155.7,169.2,155.3,168.8z M158.2,186.7h-3.1
			v-14.9h3.1V186.7z"/>
		<path class="st0" d="M165.9,178.6v8.1h-3.1v-14.9h3.1v2.7c0.5-0.9,1.2-1.6,2.1-2.2c0.9-0.5,1.8-0.8,2.9-0.8c1.7,0,3,0.5,4.1,1.5
			c1,1,1.6,2.5,1.6,4.5v9.1h-3.1v-8.2c0-2.7-1.1-4.1-3.4-4.1c-1.1,0-2,0.4-2.8,1.1C166.3,176.2,165.9,177.3,165.9,178.6z"/>
		<path class="st0" d="M194.6,171.8v13c0,2.6-0.7,4.6-2.1,5.9c-1.4,1.3-3.3,2-5.5,2c-2.2,0-4.3-0.7-6.1-2.1l1.5-2.4
			c1.5,1.1,2.9,1.7,4.4,1.7c1.5,0,2.7-0.4,3.5-1.1s1.3-2,1.3-3.7v-1.9c-0.5,0.9-1.1,1.6-2,2.1s-1.8,0.8-2.9,0.8
			c-2,0-3.6-0.7-4.9-2.1c-1.3-1.4-1.9-3.1-1.9-5.2c0-2.1,0.6-3.8,1.9-5.2c1.3-1.4,2.9-2.1,4.9-2.1c2,0,3.6,0.8,4.8,2.4v-2.2H194.6z
			 M183,178.7c0,1.2,0.4,2.3,1.1,3.2c0.8,0.9,1.8,1.3,3.1,1.3c1.3,0,2.3-0.4,3.1-1.3c0.8-0.9,1.2-1.9,1.2-3.2c0-1.3-0.4-2.4-1.2-3.2
			s-1.8-1.3-3.1-1.3s-2.3,0.5-3,1.4C183.4,176.4,183,177.5,183,178.7z"/>
		<path class="st0" d="M210.7,170.6v1.2h3.9v2.5h-3.9v12.4h-3.1v-12.4h-1.9v-2.5h1.9v-1.1c0-1.6,0.5-2.8,1.4-3.7
			c0.9-0.9,2.1-1.4,3.4-1.4c1.3,0,2.6,0.5,3.7,1.5l-1.3,2.2c-0.6-0.7-1.3-1-1.9-1s-1.2,0.2-1.6,0.6
			C210.9,169.3,210.7,169.9,210.7,170.6z"/>
		<path class="st0" d="M229.7,184.7c-1.5,1.5-3.4,2.2-5.6,2.2s-4.1-0.7-5.6-2.2c-1.5-1.5-2.2-3.3-2.2-5.4c0-2.1,0.7-4,2.2-5.4
			c1.5-1.5,3.4-2.2,5.6-2.2s4.1,0.7,5.6,2.2c1.5,1.5,2.2,3.3,2.2,5.4C232,181.4,231.2,183.2,229.7,184.7z M220.7,182.8
			c0.9,0.9,2,1.4,3.4,1.4s2.5-0.5,3.4-1.4s1.3-2.1,1.3-3.5c0-1.4-0.4-2.6-1.3-3.5s-2-1.4-3.4-1.4s-2.5,0.5-3.4,1.4s-1.3,2.1-1.3,3.5
			C219.4,180.7,219.9,181.9,220.7,182.8z"/>
		<path class="st0" d="M243.3,174.7c-1.5,0-2.7,0.5-3.5,1.5c-0.8,1-1.2,2.4-1.2,4.1v6.4h-3.1v-14.9h3.1v3c0.5-0.9,1.2-1.7,2.1-2.3
			c0.9-0.6,1.8-0.9,2.8-0.9l0,3.2C243.4,174.7,243.4,174.7,243.3,174.7z"/>
		<path class="st0" d="M108.2,215.6c-2.2,0-4-0.7-5.6-2.2s-2.3-3.4-2.3-5.8c0-2.4,0.8-4.3,2.4-5.8c1.6-1.5,3.6-2.2,6-2.2
			s4.3,0.8,5.9,2.4l-1.9,2.4c-1.3-1.2-2.7-1.8-4.1-1.8s-2.5,0.5-3.6,1.4s-1.5,2.1-1.5,3.5c0,1.4,0.5,2.6,1.5,3.6s2.2,1.5,3.7,1.5
			s2.8-0.7,4.1-2l1.9,2.1C112.8,214.7,110.7,215.6,108.2,215.6z"/>
		<path class="st0" d="M121.4,207v8.4h-3.3v-21.7h3.3v8.9c0.5-1,1.2-1.7,2.1-2.3c0.9-0.5,2-0.8,3.1-0.8c1.8,0,3.2,0.5,4.3,1.6
			s1.6,2.6,1.6,4.6v9.5h-3.3v-8.5c0-2.9-1.2-4.3-3.6-4.3c-1.1,0-2.1,0.4-3,1.1C121.8,204.4,121.4,205.5,121.4,207z"/>
		<path class="st0" d="M150,213.3c-1.6,1.5-3.5,2.3-5.8,2.3c-2.3,0-4.3-0.8-5.8-2.3s-2.3-3.4-2.3-5.7c0-2.2,0.8-4.1,2.3-5.7
			s3.5-2.3,5.8-2.3c2.3,0,4.3,0.8,5.8,2.3s2.3,3.4,2.3,5.7C152.4,209.9,151.6,211.8,150,213.3z M140.6,211.3
			c0.9,0.9,2.1,1.4,3.5,1.4s2.6-0.5,3.5-1.4c0.9-0.9,1.4-2.2,1.4-3.7c0-1.5-0.5-2.7-1.4-3.7c-0.9-0.9-2.1-1.4-3.5-1.4
			s-2.6,0.5-3.5,1.4c-0.9,0.9-1.4,2.2-1.4,3.7C139.3,209.1,139.7,210.3,140.6,211.3z"/>
		<path class="st0" d="M163,215.6c-2.2,0-4-0.7-5.6-2.2s-2.3-3.4-2.3-5.8c0-2.4,0.8-4.3,2.4-5.8c1.6-1.5,3.6-2.2,6-2.2
			s4.3,0.8,5.9,2.4l-1.9,2.4c-1.3-1.2-2.7-1.8-4.1-1.8s-2.5,0.5-3.6,1.4s-1.5,2.1-1.5,3.5c0,1.4,0.5,2.6,1.5,3.6s2.2,1.5,3.7,1.5
			s2.8-0.7,4.1-2l1.9,2.1C167.6,214.7,165.5,215.6,163,215.6z"/>
		<path class="st0" d="M185.6,213.3c-1.6,1.5-3.5,2.3-5.8,2.3c-2.3,0-4.3-0.8-5.8-2.3s-2.3-3.4-2.3-5.7c0-2.2,0.8-4.1,2.3-5.7
			s3.5-2.3,5.8-2.3c2.3,0,4.3,0.8,5.8,2.3s2.3,3.4,2.3,5.7C187.9,209.9,187.2,211.8,185.6,213.3z M176.2,211.3
			c0.9,0.9,2.1,1.4,3.5,1.4s2.6-0.5,3.5-1.4c0.9-0.9,1.4-2.2,1.4-3.7c0-1.5-0.5-2.7-1.4-3.7c-0.9-0.9-2.1-1.4-3.5-1.4
			s-2.6,0.5-3.5,1.4c-0.9,0.9-1.4,2.2-1.4,3.7C174.8,209.1,175.3,210.3,176.2,211.3z"/>
		<path class="st0" d="M194.9,215.4h-3.3v-21.7h3.3V215.4z"/>
		<path class="st0" d="M212.3,215.4h-3v-2.1c-1.3,1.5-3,2.3-5.2,2.3c-1.6,0-3-0.5-4-1.4c-1.1-0.9-1.6-2.1-1.6-3.7
			c0-1.5,0.6-2.7,1.7-3.4c1.1-0.8,2.7-1.1,4.6-1.1h4.2v-0.6c0-2.1-1.2-3.1-3.5-3.1c-1.4,0-2.9,0.5-4.5,1.6l-1.5-2
			c1.9-1.5,4-2.3,6.4-2.3c1.8,0,3.3,0.5,4.5,1.4s1.7,2.4,1.7,4.4V215.4z M209,209.6v-1.3h-3.7c-2.4,0-3.5,0.7-3.5,2.2
			c0,0.8,0.3,1.3,0.9,1.7c0.6,0.4,1.4,0.6,2.4,0.6c1,0,2-0.3,2.7-0.9C208.6,211.4,209,210.6,209,209.6z"/>
		<path class="st0" d="M220.7,202.5v7.9c0,0.7,0.2,1.3,0.6,1.8s0.9,0.7,1.6,0.7c0.7,0,1.4-0.3,2-1l1.3,2.3c-1.2,1-2.4,1.5-3.8,1.5
			s-2.6-0.5-3.6-1.4s-1.5-2.3-1.5-3.9v-7.8h-2v-2.6h2V195h3.3v4.9h4.1v2.6H220.7z"/>
		<path class="st0" d="M243.4,209h-12.2c0.1,1.1,0.6,2,1.5,2.7c1,0.7,2,1,3.3,1c1.9,0,3.4-0.6,4.4-1.8l1.9,2
			c-1.7,1.7-3.9,2.6-6.5,2.6c-2.2,0-4-0.7-5.6-2.2s-2.3-3.4-2.3-5.8c0-2.4,0.8-4.4,2.3-5.8c1.6-1.4,3.4-2.2,5.5-2.2s3.9,0.6,5.4,1.9
			c1.5,1.3,2.2,3,2.2,5.3V209z M231.2,206.5h8.9c0-1.3-0.4-2.3-1.2-3c-0.8-0.7-1.8-1.1-3-1.1s-2.3,0.4-3.2,1.1
			C231.6,204.2,231.2,205.2,231.2,206.5z"/>
	</g>
	<path class="st0" d="M191,121.6c18.1-3.8,34.2,4.9,36.9,5.5C212.3,129.8,197.3,127.9,191,121.6z"/>
	<g>
		<path class="st0" d="M181.7,124.5c0,0,0.7,0,2,0.1c0.6,0.1,1.4,0.2,2.3,0.4c0.9,0.2,1.8,0.5,2.9,0.8c1,0.4,2.1,0.8,3.3,1.2
			c1.1,0.5,2.3,1,3.5,1.5c1.2,0.5,2.5,1.1,3.7,1.5c1.3,0.5,2.5,1,3.8,1.4c0.6,0.2,1.3,0.4,1.9,0.6l1,0.3l1,0.2
			c0.6,0.1,1.3,0.3,1.9,0.4c0.6,0.1,1.3,0.2,1.9,0.3c0.6,0.1,1.2,0.1,1.8,0.2c0.6,0,1.2,0.1,1.8,0.1c1.2,0,2.3,0,3.3-0.1
			c1-0.1,2-0.2,2.8-0.3c0.9-0.1,1.6-0.3,2.2-0.4c1.2-0.2,2-0.3,2-0.3s-0.6,0.4-1.7,1c-0.6,0.3-1.2,0.8-2,1.1
			c-0.8,0.3-1.8,0.7-2.8,1.1c-1.1,0.3-2.3,0.6-3.5,0.8c-0.6,0.1-1.3,0.1-2,0.2c-0.7,0.1-1.4,0.1-2.1,0c-0.7,0-1.4-0.1-2.2-0.1
			c-0.7-0.1-1.4-0.2-2.2-0.4l-1.1-0.2l-1.1-0.3c-0.7-0.2-1.4-0.4-2.1-0.6c-0.7-0.3-1.4-0.5-2.1-0.8c-0.7-0.3-1.3-0.6-2-0.9
			c-0.7-0.3-1.3-0.6-1.9-0.9c-0.6-0.3-1.2-0.6-1.8-1c-2.3-1.3-4.4-2.6-6.2-3.8c-0.9-0.5-1.7-1-2.5-1.5c-0.7-0.4-1.4-0.8-1.9-1.1
			C182.3,124.9,181.7,124.5,181.7,124.5z"/>
	</g>
	<path class="st1" d="M185.5,139.5c-3.9-2.5-7.6-4.9-11-5.9c-0.5,0.3-1,0.5-1.6,0.8c-4.2,2-9.2,2.9-15,2.9
		c-9.3,0-17.4-3.4-24.2-10.2c-6.8-6.8-10.2-15.3-10.2-25.4c0-10.1,3.4-18.4,10.3-25c6.8-6.5,15.3-9.8,25.4-9.8
		c5.7,0,10.7,0.9,14.9,2.7c2.2,0.9,4.4,2.2,6.7,3.9c4-5.3,7.8-9.1,11.6-11.6c-9.2-7.7-20.2-11.5-32.9-11.5
		c-15.5,0-28.2,4.9-38.4,14.8c-10.1,9.9-15.2,22.3-15.2,37.1c0,14.8,5,27.1,14.9,36.8c9.9,9.7,22.4,14.5,37.5,14.5
		c12,0,22.6-3.7,31.8-11.2C188.7,141.6,187.1,140.5,185.5,139.5z"/>
	<path class="st2" d="M169.4,105.6c-3.6-9.1,5.4-11.6,8.3-15.5c2.8-3.9,12.7-22.2,24.2-25.2c11.5-3,13.8,0.6,19,1.7
		c5.2,1,11.1,0.3,13.2,3.6c2.1,3.4-1.8,9-3.1,13.2c-1.3,4.1-5.4,16.3-14,22.2c-8.5,5.9-21.6,2.2-35.4,5.9
		C172,114.1,170.6,108.7,169.4,105.6z"/>
	<ellipse transform="matrix(0.8788 -0.4773 0.4773 0.8788 -13.4656 106.69)" class="st0" cx="203.3" cy="79.8" rx="3.4" ry="5.8"/>
	<ellipse transform="matrix(0.8788 -0.4773 0.4773 0.8788 -18.907 112.1905)" class="st0" cx="211.4" cy="93.3" rx="3.4" ry="5.8"/>
	<ellipse transform="matrix(0.8788 -0.4773 0.4773 0.8788 -16.6881 103.5964)" class="st0" cx="195.6" cy="84.6" rx="3" ry="5.2"/>
	<ellipse transform="matrix(0.8788 -0.4773 0.4773 0.8788 -21.5854 108.5468)" class="st0" cx="202.8" cy="96.8" rx="3" ry="5.2"/>
	<ellipse transform="matrix(0.8788 -0.4773 0.4773 0.8788 -11.1906 110.0243)" class="st0" cx="211" cy="77" rx="3" ry="5.2"/>
	<ellipse transform="matrix(0.8788 -0.4773 0.4773 0.8788 -16.0879 114.9747)" class="st0" cx="218.2" cy="89.2" rx="3" ry="5.2"/>
	<ellipse transform="matrix(0.8788 -0.4773 0.4773 0.8788 -20.0773 101.1031)" class="st0" cx="189" cy="90.1" rx="2.4" ry="4.2"/>
	<ellipse transform="matrix(0.8788 -0.4773 0.4773 0.8788 -24.0441 105.113)" class="st0" cx="194.9" cy="99.9" rx="2.4" ry="4.2"/>
	<ellipse transform="matrix(0.8788 -0.4773 0.4773 0.8788 -23.0423 98.6801)" class="st0" cx="182.7" cy="94.7" rx="2" ry="3.4"/>
	<ellipse transform="matrix(0.8788 -0.4773 0.4773 0.8788 -26.2554 101.9281)" class="st0" cx="187.5" cy="102.6" rx="2" ry="3.4"/>
	<path class="st0" d="M218.2,72.2c4.5,1.4,4.6,4,2.1,4.8c-2.6,0.9-2.8-0.8-3.6-2.4C215.9,73,215.7,71.4,218.2,72.2z"/>
	<path class="st0" d="M225.4,83.5c1.1-4.6-1-6-3.1-4.2c-2.1,1.8-0.8,2.8,0.2,4.3C223.5,85.2,224.8,86.1,225.4,83.5z"/>
	<path class="st2" d="M235.4,110.1c-3.2-4.7-8.9-8.3-12.7-10.1c-1.6,2.1-3.6,4.1-5.8,5.6c-8.5,5.9-21.6,2.2-35.4,5.9
		c-8.5,2.3-10.5-1.7-11.7-4.8c-0.4,0.3-0.7,0.6-0.8,1c-4.1,7.9-3.1,17.3,7.9,19.9c11,2.7,22.3,17.7,37.8,14.6
		c15.5-3.1,11.7-5.7,17.4-9.3s11.9-5.5,12.2-10.6C244.5,117.2,239.9,116.4,235.4,110.1z"/>
	<path class="st2" d="M169.8,106.7c1.2,3.1,3.2,7.1,11.7,4.8c13.8-3.7,26.9,0,35.4-5.9c2.2-1.5,4.1-3.5,5.8-5.6"/>
</g>
<g>
</g>
<g>
</g>
<g>
</g>
<g>
</g>
<g>
</g>
<g>
</g>
</svg>
