<?xml version="1.0" encoding="utf-8"?>
<!-- Generator: Adobe Illustrator 18.1.1, SVG Export Plug-In . SVG Version: 6.00 Build 0)  -->
<!DOCTYPE svg PUBLIC "-//W3C//DTD SVG 1.1//EN" "http://www.w3.org/Graphics/SVG/1.1/DTD/svg11.dtd">
<svg version="1.1" id="Layer_1" xmlns="http://www.w3.org/2000/svg" xmlns:xlink="http://www.w3.org/1999/xlink" x="0px" y="0px"
	 width="344.3px" height="266.1px" viewBox="0 0 344.3 266.1" style="enable-background:new 0 0 344.3 266.1;" xml:space="preserve"
	>
<style type="text/css">
	.st0{fill:#231F20;}
	.st1{fill:none;stroke:#231F20;stroke-width:2.0129;stroke-linejoin:round;stroke-miterlimit:10;}
	.st2{fill:none;stroke:#231F20;stroke-width:2.0124;stroke-miterlimit:10;}
</style>
<g>
	<g>
		<path class="st0" d="M132.6,169h-1.9v-1.3c-0.8,1-1.9,1.5-3.3,1.5c-1,0-1.9-0.3-2.6-0.9c-0.7-0.6-1-1.4-1-2.4c0-1,0.4-1.7,1.1-2.2
			c0.7-0.5,1.7-0.7,2.9-0.7h2.7v-0.4c0-1.3-0.7-2-2.2-2c-0.9,0-1.9,0.3-2.9,1l-0.9-1.3c1.2-1,2.6-1.4,4.1-1.4c1.2,0,2.1,0.3,2.9,0.9
			c0.7,0.6,1.1,1.5,1.1,2.8V169z M130.5,165.3v-0.8h-2.4c-1.5,0-2.3,0.5-2.3,1.4c0,0.5,0.2,0.9,0.6,1.1c0.4,0.3,0.9,0.4,1.6,0.4
			c0.7,0,1.3-0.2,1.8-0.6C130.3,166.5,130.5,166,130.5,165.3z"/>
		<path class="st0" d="M143.3,160.7v5.1c0,0.5,0.1,0.9,0.4,1.1c0.3,0.3,0.6,0.4,1.1,0.4c0.5,0,0.9-0.2,1.3-0.7l0.9,1.5
			c-0.7,0.7-1.6,1-2.5,1c-0.9,0-1.7-0.3-2.3-0.9c-0.6-0.6-0.9-1.5-0.9-2.5v-5h-1.3V159h1.3v-3.1h2.1v3.1h2.6v1.7H143.3z"/>
		<path class="st0" d="M150.7,163.6v5.4h-2.1v-13.9h2.1v5.7c0.3-0.6,0.8-1.1,1.4-1.4c0.6-0.4,1.3-0.5,2-0.5c1.1,0,2,0.3,2.7,1
			c0.7,0.7,1,1.7,1,3v6.1h-2.1v-5.5c0-1.8-0.8-2.8-2.3-2.8c-0.7,0-1.4,0.2-1.9,0.7C150.9,162,150.7,162.7,150.7,163.6z"/>
		<path class="st0" d="M160.8,157.1c-0.3-0.3-0.4-0.6-0.4-0.9c0-0.4,0.1-0.7,0.4-0.9c0.3-0.3,0.6-0.4,0.9-0.4c0.4,0,0.7,0.1,0.9,0.4
			c0.3,0.3,0.4,0.6,0.4,0.9c0,0.4-0.1,0.7-0.4,0.9c-0.3,0.3-0.6,0.4-0.9,0.4C161.4,157.4,161.1,157.3,160.8,157.1z M162.8,169h-2.1
			v-10h2.1V169z"/>
		<path class="st0" d="M168,163.6v5.4h-2.1v-10h2.1v1.8c0.3-0.6,0.8-1.1,1.4-1.4c0.6-0.4,1.2-0.5,1.9-0.5c1.1,0,2,0.3,2.7,1
			c0.7,0.7,1,1.7,1,3v6.1H173v-5.5c0-1.8-0.8-2.8-2.3-2.8c-0.7,0-1.4,0.2-1.9,0.7C168.2,162,168,162.7,168,163.6z"/>
		<path class="st0" d="M187.2,159v8.7c0,1.8-0.5,3.1-1.4,4c-1,0.9-2.2,1.3-3.7,1.3c-1.5,0-2.9-0.5-4.1-1.4l1-1.6c1,0.7,2,1.1,3,1.1
			c1,0,1.8-0.3,2.4-0.8s0.9-1.3,0.9-2.5v-1.3c-0.3,0.6-0.8,1.1-1.3,1.4c-0.6,0.4-1.2,0.5-2,0.5c-1.3,0-2.4-0.5-3.3-1.4
			c-0.9-0.9-1.3-2.1-1.3-3.5c0-1.4,0.4-2.5,1.3-3.5c0.9-0.9,1.9-1.4,3.3-1.4c1.3,0,2.4,0.5,3.2,1.6V159H187.2z M179.4,163.7
			c0,0.8,0.3,1.5,0.8,2.1c0.5,0.6,1.2,0.9,2,0.9c0.9,0,1.6-0.3,2.1-0.9c0.5-0.6,0.8-1.3,0.8-2.2c0-0.9-0.3-1.6-0.8-2.2
			c-0.5-0.6-1.2-0.9-2.1-0.9s-1.5,0.3-2,0.9C179.7,162.1,179.4,162.8,179.4,163.7z"/>
		<path class="st0" d="M198,158.2v0.8h2.6v1.7H198v8.3h-2.1v-8.3h-1.3V159h1.3v-0.8c0-1.1,0.3-1.9,0.9-2.5c0.6-0.6,1.4-0.9,2.3-0.9
			c0.9,0,1.7,0.3,2.5,1l-0.9,1.5c-0.4-0.4-0.8-0.7-1.3-0.7s-0.8,0.1-1.1,0.4C198.1,157.4,198,157.7,198,158.2z"/>
		<path class="st0" d="M210.8,167.7c-1,1-2.3,1.5-3.8,1.5c-1.5,0-2.8-0.5-3.8-1.5c-1-1-1.5-2.2-1.5-3.7c0-1.4,0.5-2.7,1.5-3.7
			c1-1,2.3-1.5,3.8-1.5c1.5,0,2.8,0.5,3.8,1.5c1,1,1.5,2.2,1.5,3.7C212.3,165.5,211.8,166.7,210.8,167.7z M204.8,166.4
			c0.6,0.6,1.3,0.9,2.3,0.9c0.9,0,1.7-0.3,2.3-0.9c0.6-0.6,0.9-1.4,0.9-2.4c0-1-0.3-1.7-0.9-2.4c-0.6-0.6-1.3-0.9-2.3-0.9
			c-0.9,0-1.7,0.3-2.3,0.9c-0.6,0.6-0.9,1.4-0.9,2.4C203.9,165,204.2,165.8,204.8,166.4z"/>
		<path class="st0" d="M219.9,161c-1,0-1.8,0.3-2.3,1c-0.5,0.7-0.8,1.6-0.8,2.7v4.3h-2.1v-10h2.1v2c0.3-0.6,0.8-1.1,1.4-1.5
			c0.6-0.4,1.2-0.6,1.8-0.6l0,2.1C220,161,219.9,161,219.9,161z"/>
		<path class="st0" d="M129.2,188.4c-1.5,0-2.7-0.5-3.7-1.5c-1-1-1.6-2.3-1.6-3.9c0-1.6,0.5-2.9,1.6-3.9c1.1-1,2.4-1.5,4-1.5
			c1.6,0,2.9,0.5,4,1.6l-1.3,1.6c-0.9-0.8-1.8-1.2-2.7-1.2c-0.9,0-1.7,0.3-2.4,0.9c-0.7,0.6-1,1.4-1,2.4c0,1,0.3,1.8,1,2.4
			c0.7,0.7,1.5,1,2.5,1c1,0,1.9-0.4,2.8-1.3l1.3,1.4C132.4,187.8,130.9,188.4,129.2,188.4z"/>
		<path class="st0" d="M138.1,182.6v5.6h-2.2v-14.5h2.2v6c0.3-0.6,0.8-1.1,1.4-1.5c0.6-0.4,1.3-0.5,2-0.5c1.2,0,2.1,0.4,2.9,1.1
			c0.7,0.7,1.1,1.8,1.1,3.1v6.4h-2.2v-5.7c0-1.9-0.8-2.9-2.4-2.9c-0.8,0-1.4,0.3-2,0.8C138.4,180.9,138.1,181.7,138.1,182.6z"/>
		<path class="st0" d="M157.3,186.9c-1,1-2.4,1.6-3.9,1.6c-1.6,0-2.9-0.5-3.9-1.6c-1-1-1.6-2.3-1.6-3.8c0-1.5,0.5-2.8,1.6-3.8
			c1-1,2.4-1.6,3.9-1.6c1.6,0,2.9,0.5,3.9,1.6c1,1,1.6,2.3,1.6,3.8C158.9,184.6,158.4,185.8,157.3,186.9z M151,185.5
			c0.6,0.6,1.4,1,2.4,1s1.7-0.3,2.4-1c0.6-0.6,0.9-1.5,0.9-2.5c0-1-0.3-1.8-0.9-2.5c-0.6-0.6-1.4-1-2.4-1s-1.7,0.3-2.4,1
			c-0.6,0.6-0.9,1.5-0.9,2.5C150.1,184.1,150.4,184.9,151,185.5z"/>
		<path class="st0" d="M166,188.4c-1.5,0-2.7-0.5-3.7-1.5s-1.6-2.3-1.6-3.9c0-1.6,0.5-2.9,1.6-3.9c1.1-1,2.4-1.5,4-1.5
			s2.9,0.5,4,1.6l-1.3,1.6c-0.9-0.8-1.8-1.2-2.7-1.2s-1.7,0.3-2.4,0.9c-0.7,0.6-1,1.4-1,2.4c0,1,0.3,1.8,1,2.4s1.5,1,2.5,1
			s1.9-0.4,2.8-1.3l1.3,1.4C169.1,187.8,167.7,188.4,166,188.4z"/>
		<path class="st0" d="M181.2,186.9c-1,1-2.4,1.6-3.9,1.6c-1.6,0-2.9-0.5-3.9-1.6c-1-1-1.6-2.3-1.6-3.8c0-1.5,0.5-2.8,1.6-3.8
			c1-1,2.4-1.6,3.9-1.6c1.6,0,2.9,0.5,3.9,1.6c1,1,1.6,2.3,1.6,3.8C182.8,184.6,182.2,185.8,181.2,186.9z M174.9,185.5
			c0.6,0.6,1.4,1,2.4,1s1.7-0.3,2.4-1c0.6-0.6,0.9-1.5,0.9-2.5c0-1-0.3-1.8-0.9-2.5c-0.6-0.6-1.4-1-2.4-1s-1.7,0.3-2.4,1
			c-0.6,0.6-0.9,1.5-0.9,2.5C174,184.1,174.3,184.9,174.9,185.5z"/>
		<path class="st0" d="M187.4,188.3h-2.2v-14.6h2.2V188.3z"/>
		<path class="st0" d="M199.1,188.3h-2v-1.4c-0.9,1-2,1.5-3.5,1.5c-1.1,0-2-0.3-2.7-0.9c-0.7-0.6-1.1-1.4-1.1-2.5
			c0-1,0.4-1.8,1.1-2.3c0.8-0.5,1.8-0.8,3.1-0.8h2.8v-0.4c0-1.4-0.8-2.1-2.3-2.1c-1,0-2,0.4-3,1.1l-1-1.4c1.3-1,2.7-1.5,4.3-1.5
			c1.2,0,2.2,0.3,3,0.9c0.8,0.6,1.2,1.6,1.2,2.9V188.3z M196.9,184.4v-0.9h-2.5c-1.6,0-2.4,0.5-2.4,1.5c0,0.5,0.2,0.9,0.6,1.2
			c0.4,0.3,0.9,0.4,1.6,0.4c0.7,0,1.3-0.2,1.8-0.6C196.6,185.6,196.9,185.1,196.9,184.4z"/>
		<path class="st0" d="M204.7,179.6v5.3c0,0.5,0.1,0.9,0.4,1.2c0.3,0.3,0.6,0.4,1.1,0.4c0.5,0,0.9-0.2,1.4-0.7l0.9,1.5
			c-0.8,0.7-1.6,1-2.6,1c-0.9,0-1.7-0.3-2.4-1c-0.7-0.6-1-1.5-1-2.6v-5.2h-1.3v-1.8h1.3v-3.3h2.2v3.3h2.7v1.8H204.7z"/>
		<path class="st0" d="M219.9,184h-8.2c0.1,0.8,0.4,1.4,1,1.8c0.6,0.5,1.4,0.7,2.2,0.7c1.3,0,2.3-0.4,3-1.2l1.3,1.4
			c-1.1,1.2-2.6,1.7-4.4,1.7c-1.5,0-2.7-0.5-3.7-1.5c-1-1-1.5-2.3-1.5-3.9c0-1.6,0.5-2.9,1.6-3.9c1-1,2.3-1.5,3.7-1.5
			s2.6,0.4,3.6,1.3c1,0.9,1.5,2,1.5,3.5V184z M211.7,182.3h6c0-0.9-0.3-1.5-0.8-2c-0.5-0.5-1.2-0.7-2-0.7s-1.5,0.2-2.2,0.7
			C212.1,180.8,211.7,181.5,211.7,182.3z"/>
	</g>
	<path class="st0" d="M184.8,125.4c12.2-2.5,23,3.3,24.7,3.7C199.1,130.9,189.1,129.6,184.8,125.4z"/>
	<g>
		<path class="st0" d="M178.5,127.3c0,0,0.5,0,1.3,0.1c0.8,0.1,2.1,0.4,3.5,0.9c1.4,0.5,2.9,1.1,4.6,1.8c0.8,0.3,1.6,0.7,2.5,1
			c0.8,0.4,1.7,0.7,2.6,1c0.4,0.2,0.9,0.3,1.3,0.4c0.4,0.1,0.9,0.3,1.3,0.3c0.4,0.1,0.9,0.2,1.3,0.3c0.4,0.1,0.8,0.1,1.3,0.2
			c0.4,0.1,0.8,0.1,1.2,0.1c0.4,0,0.8,0.1,1.2,0.1c0.8,0,1.5,0,2.2-0.1c0.7-0.1,1.3-0.2,1.9-0.2c0.6-0.1,1.1-0.2,1.5-0.3
			c0.8-0.2,1.3-0.2,1.3-0.2s-0.4,0.3-1.1,0.7c-0.4,0.2-0.8,0.5-1.4,0.7c-0.6,0.2-1.2,0.5-1.9,0.7c-0.7,0.2-1.5,0.4-2.4,0.5
			c-0.9,0-1.8,0.2-2.7,0.1c-0.5,0-1-0.1-1.4-0.1c-0.5-0.1-1-0.2-1.5-0.2c-0.5-0.1-1-0.2-1.5-0.3c-0.5-0.1-1-0.3-1.4-0.4
			c-0.9-0.3-1.9-0.7-2.7-1.1c-0.9-0.4-1.7-0.9-2.5-1.3c-1.6-0.9-3-1.8-4.2-2.5c-0.6-0.4-1.2-0.7-1.7-1c-0.5-0.3-0.9-0.5-1.3-0.7
			C179,127.6,178.5,127.3,178.5,127.3z"/>
	</g>
	<path class="st1" d="M181.1,137.4c-2.6-1.7-5.1-3.3-7.4-4c-0.3,0.2-0.7,0.4-1,0.5c-2.8,1.3-6.2,2-10,2c-6.3,0-11.7-2.3-16.2-6.8
		c-4.6-4.6-6.8-10.2-6.8-17c0-6.8,2.3-12.4,6.9-16.7c4.6-4.4,10.3-6.6,17-6.6c3.8,0,7.2,0.6,10,1.8c1.5,0.6,3,1.5,4.5,2.6
		c2.7-3.5,5.2-6.1,7.8-7.8c-6.2-5.1-13.6-7.7-22-7.7c-10.4,0-18.9,3.3-25.7,10c-6.8,6.6-10.2,14.9-10.2,24.9c0,10,3.3,18.2,10,24.7
		c6.7,6.5,15.1,9.8,25.2,9.8c8.1,0,15.2-2.5,21.3-7.5C183.2,138.8,182.2,138.1,181.1,137.4z"/>
	<path class="st2" d="M170.3,114.6c-2.4-6.1,3.6-7.8,5.5-10.4c1.9-2.6,8.5-14.9,16.2-16.9c7.7-2,9.3,0.4,12.7,1.1s7.5,0.2,8.8,2.4
		s-1.2,6.1-2.1,8.8s-3.6,10.9-9.4,14.9c-5.7,4-14.5,1.5-23.8,4C172,120.3,171.1,116.7,170.3,114.6z"/>
	<ellipse transform="matrix(0.8788 -0.4773 0.4773 0.8788 -23.0638 103.9304)" class="st0" cx="193" cy="97.4" rx="2.3" ry="3.9"/>
	
		<ellipse transform="matrix(0.8788 -0.4773 0.4773 0.8788 -26.714 107.6202)" class="st0" cx="198.5" cy="106.4" rx="2.3" ry="3.9"/>
	<ellipse transform="matrix(0.8788 -0.4773 0.4773 0.8788 -25.2255 101.8552)" class="st0" cx="187.9" cy="100.6" rx="2" ry="3.5"/>
	<ellipse transform="matrix(0.8788 -0.4773 0.4773 0.8788 -28.5107 105.176)" class="st0" cx="192.7" cy="108.7" rx="2" ry="3.5"/>
	<ellipse transform="matrix(0.8788 -0.4773 0.4773 0.8788 -21.5377 106.1671)" class="st0" cx="198.2" cy="95.5" rx="2" ry="3.5"/>
	<ellipse transform="matrix(0.8788 -0.4773 0.4773 0.8788 -24.8229 109.488)" class="st0" cx="203.1" cy="103.6" rx="2" ry="3.5"/>
	
		<ellipse transform="matrix(0.8788 -0.4773 0.4773 0.8788 -27.4991 100.1827)" class="st0" cx="183.4" cy="104.2" rx="1.6" ry="2.8"/>
	<ellipse transform="matrix(0.8788 -0.4773 0.4773 0.8788 -30.16 102.8726)" class="st0" cx="187.4" cy="110.8" rx="1.6" ry="2.8"/>
	<ellipse transform="matrix(0.8788 -0.4773 0.4773 0.8788 -29.488 98.5573)" class="st0" cx="179.2" cy="107.3" rx="1.3" ry="2.3"/>
	
		<ellipse transform="matrix(0.8788 -0.4773 0.4773 0.8788 -31.6434 100.7361)" class="st0" cx="182.4" cy="112.6" rx="1.3" ry="2.3"/>
	<path class="st0" d="M203.1,92.2c3,0.9,3.1,2.6,1.4,3.2c-1.7,0.6-1.9-0.5-2.4-1.6S201.4,91.7,203.1,92.2z"/>
	<path class="st0" d="M207.9,99.8c0.7-3.1-0.7-4-2.1-2.8c-1.4,1.2-0.5,1.9,0.2,2.9C206.6,100.9,207.5,101.6,207.9,99.8z"/>
	<path class="st2" d="M214.6,117.6c-2.2-3.1-6-5.6-8.5-6.8c-1.1,1.4-2.4,2.7-3.9,3.8c-5.7,4-14.5,1.5-23.8,4c-5.7,1.5-7-1.1-7.8-3.2
		c-0.2,0.2-0.4,0.4-0.6,0.6c-2.8,5.3-2.1,11.6,5.3,13.4c7.4,1.8,15,11.9,25.3,9.8c10.4-2.1,7.8-3.9,11.7-6.2c3.9-2.4,8-3.7,8.2-7.1
		C220.7,122.4,217.6,121.9,214.6,117.6z"/>
	<path class="st2" d="M170.6,115.4c0.8,2.1,2.2,4.7,7.8,3.2c9.3-2.5,18,0,23.8-4c1.5-1,2.8-2.3,3.9-3.8"/>
</g>
<g>
</g>
<g>
</g>
<g>
</g>
<g>
</g>
<g>
</g>
<g>
</g>
</svg>
