<?xml version="1.0" encoding="utf-8"?>
<!-- Generator: Adobe Illustrator 18.1.1, SVG Export Plug-In . SVG Version: 6.00 Build 0)  -->
<!DOCTYPE svg PUBLIC "-//W3C//DTD SVG 1.1//EN" "http://www.w3.org/Graphics/SVG/1.1/DTD/svg11.dtd">
<svg version="1.1" id="Layer_1" xmlns="http://www.w3.org/2000/svg" xmlns:xlink="http://www.w3.org/1999/xlink" x="0px" y="0px"
	 width="112.5px" height="129px" viewBox="0 0 112.5 129" enable-background="new 0 0 112.5 129" xml:space="preserve">
<g>
	<g>
		<path fill="#231F20" d="M16.5,99.9h-1.9v-1.3c-0.8,1-1.9,1.5-3.3,1.5c-1,0-1.9-0.3-2.6-0.9c-0.7-0.6-1-1.4-1-2.4s0.4-1.7,1.1-2.2
			s1.7-0.7,2.9-0.7h2.7v-0.4c0-1.3-0.7-2-2.2-2c-0.9,0-1.9,0.3-2.9,1l-0.9-1.3c1.2-1,2.6-1.4,4.1-1.4c1.2,0,2.1,0.3,2.9,0.9
			c0.7,0.6,1.1,1.5,1.1,2.8L16.5,99.9L16.5,99.9z M14.4,96.2v-0.8H12c-1.5,0-2.3,0.5-2.3,1.4c0,0.5,0.2,0.9,0.6,1.1
			c0.4,0.3,0.9,0.4,1.6,0.4s1.3-0.2,1.8-0.6C14.2,97.4,14.4,96.9,14.4,96.2z"/>
		<path fill="#231F20" d="M27.2,91.6v5.1c0,0.5,0.1,0.9,0.4,1.1c0.3,0.3,0.6,0.4,1.1,0.4s0.9-0.2,1.3-0.7l0.9,1.5
			c-0.7,0.7-1.6,1-2.5,1s-1.7-0.3-2.3-0.9c-0.6-0.6-0.9-1.5-0.9-2.5v-5h-1.3v-1.7h1.3v-3.1h2.1v3.1h2.6v1.7H27.2z"/>
		<path fill="#231F20" d="M34.6,94.5v5.4h-2.1V86h2.1v5.7c0.3-0.6,0.8-1.1,1.4-1.4c0.6-0.4,1.3-0.5,2-0.5c1.1,0,2,0.3,2.7,1
			s1,1.7,1,3v6.1h-2.1v-5.5c0-1.8-0.8-2.8-2.3-2.8c-0.7,0-1.4,0.2-1.9,0.7C34.8,92.9,34.6,93.6,34.6,94.5z"/>
		<path fill="#231F20" d="M44.7,88c-0.3-0.3-0.4-0.6-0.4-0.9c0-0.4,0.1-0.7,0.4-0.9c0.3-0.3,0.6-0.4,0.9-0.4c0.4,0,0.7,0.1,0.9,0.4
			c0.3,0.3,0.4,0.6,0.4,0.9c0,0.4-0.1,0.7-0.4,0.9c-0.3,0.3-0.6,0.4-0.9,0.4C45.3,88.3,45,88.2,44.7,88z M46.7,99.9h-2.1v-10h2.1
			V99.9z"/>
		<path fill="#231F20" d="M51.9,94.5v5.4h-2.1v-10h2.1v1.8c0.3-0.6,0.8-1.1,1.4-1.4c0.6-0.4,1.2-0.5,1.9-0.5c1.1,0,2,0.3,2.7,1
			s1,1.7,1,3v6.1h-2v-5.5c0-1.8-0.8-2.8-2.3-2.8c-0.7,0-1.4,0.2-1.9,0.7C52.1,92.9,51.9,93.6,51.9,94.5z"/>
		<path fill="#231F20" d="M71.1,89.9v8.7c0,1.8-0.5,3.1-1.4,4c-1,0.9-2.2,1.3-3.7,1.3s-2.9-0.5-4.1-1.4l1-1.6c1,0.7,2,1.1,3,1.1
			s1.8-0.3,2.4-0.8s0.9-1.3,0.9-2.5v-1.3c-0.3,0.6-0.8,1.1-1.3,1.4c-0.6,0.4-1.2,0.5-2,0.5c-1.3,0-2.4-0.5-3.3-1.4
			c-0.9-0.9-1.3-2.1-1.3-3.5s0.4-2.5,1.3-3.5c0.9-0.9,1.9-1.4,3.3-1.4c1.3,0,2.4,0.5,3.2,1.6v-1.2H71.1z M63.3,94.6
			c0,0.8,0.3,1.5,0.8,2.1c0.5,0.6,1.2,0.9,2,0.9c0.9,0,1.6-0.3,2.1-0.9c0.5-0.6,0.8-1.3,0.8-2.2s-0.3-1.6-0.8-2.2
			c-0.5-0.6-1.2-0.9-2.1-0.9s-1.5,0.3-2,0.9C63.6,93,63.3,93.7,63.3,94.6z"/>
		<path fill="#231F20" d="M81.9,89.1v0.8h2.6v1.7h-2.6v8.3h-2.1v-8.3h-1.3v-1.7h1.3v-0.8c0-1.1,0.3-1.9,0.9-2.5
			c0.6-0.6,1.4-0.9,2.3-0.9c0.9,0,1.7,0.3,2.5,1l-0.9,1.5c-0.4-0.4-0.8-0.7-1.3-0.7s-0.8,0.1-1.1,0.4C82,88.3,81.9,88.6,81.9,89.1z"
			/>
		<path fill="#231F20" d="M94.7,98.6c-1,1-2.3,1.5-3.8,1.5s-2.8-0.5-3.8-1.5s-1.5-2.2-1.5-3.7c0-1.4,0.5-2.7,1.5-3.7
			s2.3-1.5,3.8-1.5s2.8,0.5,3.8,1.5s1.5,2.2,1.5,3.7S95.7,97.6,94.7,98.6z M88.7,97.3c0.6,0.6,1.3,0.9,2.3,0.9
			c0.9,0,1.7-0.3,2.3-0.9c0.6-0.6,0.9-1.4,0.9-2.4s-0.3-1.7-0.9-2.4c-0.6-0.6-1.3-0.9-2.3-0.9c-0.9,0-1.7,0.3-2.3,0.9
			c-0.6,0.6-0.9,1.4-0.9,2.4C87.8,95.9,88.1,96.7,88.7,97.3z"/>
		<path fill="#231F20" d="M103.8,91.9c-1,0-1.8,0.3-2.3,1s-0.8,1.6-0.8,2.7v4.3h-2.1v-10h2.1v2c0.3-0.6,0.8-1.1,1.4-1.5
			c0.6-0.4,1.2-0.6,1.8-0.6L103.8,91.9C103.9,91.9,103.8,91.9,103.8,91.9z"/>
		<path fill="#231F20" d="M13.1,119.3c-1.5,0-2.7-0.5-3.7-1.5s-1.6-2.3-1.6-3.9c0-1.6,0.5-2.9,1.6-3.9s2.4-1.5,4-1.5
			c1.6,0,2.9,0.5,4,1.6l-1.3,1.6c-0.9-0.8-1.8-1.2-2.7-1.2s-1.7,0.3-2.4,0.9c-0.7,0.6-1,1.4-1,2.4s0.3,1.8,1,2.4
			c0.7,0.7,1.5,1,2.5,1s1.9-0.4,2.8-1.3l1.3,1.4C16.3,118.7,14.8,119.3,13.1,119.3z"/>
		<path fill="#231F20" d="M22,113.5v5.6h-2.2v-14.5H22v6c0.3-0.6,0.8-1.1,1.4-1.5c0.6-0.4,1.3-0.5,2-0.5c1.2,0,2.1,0.4,2.9,1.1
			c0.7,0.7,1.1,1.8,1.1,3.1v6.4h-2.2v-5.7c0-1.9-0.8-2.9-2.4-2.9c-0.8,0-1.4,0.3-2,0.8C22.3,111.8,22,112.6,22,113.5z"/>
		<path fill="#231F20" d="M41.2,117.8c-1,1-2.4,1.6-3.9,1.6c-1.6,0-2.9-0.5-3.9-1.6c-1-1-1.6-2.3-1.6-3.8s0.5-2.8,1.6-3.8
			c1-1,2.4-1.6,3.9-1.6c1.6,0,2.9,0.5,3.9,1.6c1,1,1.6,2.3,1.6,3.8C42.8,115.5,42.3,116.7,41.2,117.8z M34.9,116.4
			c0.6,0.6,1.4,1,2.4,1s1.7-0.3,2.4-1c0.6-0.6,0.9-1.5,0.9-2.5s-0.3-1.8-0.9-2.5c-0.6-0.6-1.4-1-2.4-1s-1.7,0.3-2.4,1
			c-0.6,0.6-0.9,1.5-0.9,2.5C34,115,34.3,115.8,34.9,116.4z"/>
		<path fill="#231F20" d="M49.9,119.3c-1.5,0-2.7-0.5-3.7-1.5s-1.6-2.3-1.6-3.9c0-1.6,0.5-2.9,1.6-3.9s2.4-1.5,4-1.5s2.9,0.5,4,1.6
			l-1.3,1.6c-0.9-0.8-1.8-1.2-2.7-1.2s-1.7,0.3-2.4,0.9c-0.7,0.6-1,1.4-1,2.4s0.3,1.8,1,2.4s1.5,1,2.5,1s1.9-0.4,2.8-1.3l1.3,1.4
			C53,118.7,51.6,119.3,49.9,119.3z"/>
		<path fill="#231F20" d="M65.1,117.8c-1,1-2.4,1.6-3.9,1.6c-1.6,0-2.9-0.5-3.9-1.6c-1-1-1.6-2.3-1.6-3.8s0.5-2.8,1.6-3.8
			c1-1,2.4-1.6,3.9-1.6c1.6,0,2.9,0.5,3.9,1.6c1,1,1.6,2.3,1.6,3.8C66.7,115.5,66.1,116.7,65.1,117.8z M58.8,116.4
			c0.6,0.6,1.4,1,2.4,1s1.7-0.3,2.4-1c0.6-0.6,0.9-1.5,0.9-2.5s-0.3-1.8-0.9-2.5c-0.6-0.6-1.4-1-2.4-1s-1.7,0.3-2.4,1
			c-0.6,0.6-0.9,1.5-0.9,2.5C57.9,115,58.2,115.8,58.8,116.4z"/>
		<path fill="#231F20" d="M71.3,119.2h-2.2v-14.6h2.2V119.2z"/>
		<path fill="#231F20" d="M83,119.2h-2v-1.4c-0.9,1-2,1.5-3.5,1.5c-1.1,0-2-0.3-2.7-0.9c-0.7-0.6-1.1-1.4-1.1-2.5
			c0-1,0.4-1.8,1.1-2.3c0.8-0.5,1.8-0.8,3.1-0.8h2.8v-0.4c0-1.4-0.8-2.1-2.3-2.1c-1,0-2,0.4-3,1.1l-1-1.4c1.3-1,2.7-1.5,4.3-1.5
			c1.2,0,2.2,0.3,3,0.9c0.8,0.6,1.2,1.6,1.2,2.9L83,119.2L83,119.2z M80.8,115.3v-0.9h-2.5c-1.6,0-2.4,0.5-2.4,1.5
			c0,0.5,0.2,0.9,0.6,1.2c0.4,0.3,0.9,0.4,1.6,0.4c0.7,0,1.3-0.2,1.8-0.6C80.5,116.5,80.8,116,80.8,115.3z"/>
		<path fill="#231F20" d="M88.6,110.5v5.3c0,0.5,0.1,0.9,0.4,1.2c0.3,0.3,0.6,0.4,1.1,0.4s0.9-0.2,1.4-0.7l0.9,1.5
			c-0.8,0.7-1.6,1-2.6,1c-0.9,0-1.7-0.3-2.4-1c-0.7-0.6-1-1.5-1-2.6v-5.2h-1.3v-1.8h1.3v-3.3h2.2v3.3h2.7v1.8h-2.7V110.5z"/>
		<path fill="#231F20" d="M103.8,114.9h-8.2c0.1,0.8,0.4,1.4,1,1.8c0.6,0.5,1.4,0.7,2.2,0.7c1.3,0,2.3-0.4,3-1.2l1.3,1.4
			c-1.1,1.2-2.6,1.7-4.4,1.7c-1.5,0-2.7-0.5-3.7-1.5s-1.5-2.3-1.5-3.9c0-1.6,0.5-2.9,1.6-3.9c1-1,2.3-1.5,3.7-1.5s2.6,0.4,3.6,1.3
			c1,0.9,1.5,2,1.5,3.5v1.6H103.8z M95.6,113.2h6c0-0.9-0.3-1.5-0.8-2s-1.2-0.7-2-0.7s-1.5,0.2-2.2,0.7
			C96,111.7,95.6,112.4,95.6,113.2z"/>
	</g>
	<path fill="#231F20" d="M68.7,56.3c12.2-2.5,23,3.3,24.7,3.7C83,61.8,73,60.5,68.7,56.3z"/>
	<g>
		<path fill="#231F20" d="M62.4,58.2c0,0,0.5,0,1.3,0.1c0.8,0.1,2.1,0.4,3.5,0.9s2.9,1.1,4.6,1.8c0.8,0.3,1.6,0.7,2.5,1
			c0.8,0.4,1.7,0.7,2.6,1c0.4,0.2,0.9,0.3,1.3,0.4c0.4,0.1,0.9,0.3,1.3,0.3c0.4,0.1,0.9,0.2,1.3,0.3c0.4,0.1,0.8,0.1,1.3,0.2
			c0.4,0.1,0.8,0.1,1.2,0.1s0.8,0.1,1.2,0.1c0.8,0,1.5,0,2.2-0.1s1.3-0.2,1.9-0.2c0.6-0.1,1.1-0.2,1.5-0.3c0.8-0.2,1.3-0.2,1.3-0.2
			s-0.4,0.3-1.1,0.7c-0.4,0.2-0.8,0.5-1.4,0.7c-0.6,0.2-1.2,0.5-1.9,0.7s-1.5,0.4-2.4,0.5c-0.9,0-1.8,0.2-2.7,0.1
			c-0.5,0-1-0.1-1.4-0.1C80,66.1,79.5,66,79,66c-0.5-0.1-1-0.2-1.5-0.3s-1-0.3-1.4-0.4c-0.9-0.3-1.9-0.7-2.7-1.1
			c-0.9-0.4-1.7-0.9-2.5-1.3c-1.6-0.9-3-1.8-4.2-2.5c-0.6-0.4-1.2-0.7-1.7-1s-0.9-0.5-1.3-0.7C62.9,58.5,62.4,58.2,62.4,58.2z"/>
	</g>
	<path fill="none" stroke="#231F20" stroke-width="2.0129" stroke-linejoin="round" stroke-miterlimit="10" d="M65,68.3
		c-2.6-1.7-5.1-3.3-7.4-4c-0.3,0.2-0.7,0.4-1,0.5c-2.8,1.3-6.2,2-10,2c-6.3,0-11.7-2.3-16.2-6.8c-4.6-4.6-6.8-10.2-6.8-17
		s2.3-12.4,6.9-16.7c4.6-4.4,10.3-6.6,17-6.6c3.8,0,7.2,0.6,10,1.8c1.5,0.6,3,1.5,4.5,2.6c2.7-3.5,5.2-6.1,7.8-7.8
		c-6.2-5.1-13.6-7.7-22-7.7c-10.4,0-18.9,3.3-25.7,10c-6.8,6.6-10.2,14.9-10.2,24.9s3.3,18.2,10,24.7S37,78,47.1,78
		c8.1,0,15.2-2.5,21.3-7.5C67.1,69.7,66.1,69,65,68.3z"/>
	<path fill="none" stroke="#231F20" stroke-width="2.0124" stroke-miterlimit="10" d="M54.2,45.5c-2.4-6.1,3.6-7.8,5.5-10.4
		s8.5-14.9,16.2-16.9s9.3,0.4,12.7,1.1s7.5,0.2,8.8,2.4s-1.2,6.1-2.1,8.8s-3.6,10.9-9.4,14.9c-5.7,4-14.5,1.5-23.8,4
		C55.9,51.2,55,47.6,54.2,45.5z"/>
	
		<ellipse transform="matrix(-0.4773 -0.8788 0.8788 -0.4773 88.7818 109.4377)" fill="#231F20" cx="76.9" cy="28.3" rx="3.9" ry="2.3"/>
	
		<ellipse transform="matrix(-0.4773 -0.8788 0.8788 -0.4773 88.9899 127.5092)" fill="#231F20" cx="82.4" cy="37.3" rx="3.9" ry="2.3"/>
	
		<ellipse transform="matrix(-0.4773 -0.8788 0.8788 -0.4773 78.437 109.6266)" fill="#231F20" cx="71.8" cy="31.5" rx="3.5" ry="2"/>
	
		<ellipse transform="matrix(-0.4773 -0.8788 0.8788 -0.4773 78.3666 125.8807)" fill="#231F20" cx="76.6" cy="39.6" rx="3.5" ry="2"/>
	
		<ellipse transform="matrix(-0.4773 -0.8788 0.8788 -0.4773 98.1302 111.1686)" fill="#231F20" cx="82.1" cy="26.4" rx="3.5" ry="2"/>
	<ellipse transform="matrix(-0.4773 -0.8788 0.8788 -0.4773 98.2314 127.4297)" fill="#231F20" cx="87" cy="34.5" rx="3.5" ry="2"/>
	
		<ellipse transform="matrix(-0.4773 -0.8788 0.8788 -0.4773 68.5769 111.0393)" fill="#231F20" cx="67.3" cy="35.1" rx="2.8" ry="1.6"/>
	
		<ellipse transform="matrix(-0.4773 -0.8788 0.8788 -0.4773 68.7097 124.2799)" fill="#231F20" cx="71.3" cy="41.7" rx="2.8" ry="1.6"/>
	
		<ellipse transform="matrix(-0.4773 -0.8788 0.8788 -0.4773 59.6447 111.9331)" fill="#231F20" cx="63.1" cy="38.2" rx="2.3" ry="1.3"/>
	
		<ellipse transform="matrix(-0.4773 -0.8788 0.8788 -0.4773 59.6866 122.5762)" fill="#231F20" cx="66.3" cy="43.5" rx="2.3" ry="1.3"/>
	<path fill="#231F20" d="M87,23.1c3,0.9,3.1,2.6,1.4,3.2c-1.7,0.6-1.9-0.5-2.4-1.6S85.3,22.6,87,23.1z"/>
	<path fill="#231F20" d="M91.8,30.7c0.7-3.1-0.7-4-2.1-2.8c-1.4,1.2-0.5,1.9,0.2,2.9C90.5,31.8,91.4,32.5,91.8,30.7z"/>
	<path fill="none" stroke="#231F20" stroke-width="2.0124" stroke-miterlimit="10" d="M98.5,48.5c-2.2-3.1-6-5.6-8.5-6.8
		c-1.1,1.4-2.4,2.7-3.9,3.8c-5.7,4-14.5,1.5-23.8,4c-5.7,1.5-7-1.1-7.8-3.2c-0.2,0.2-0.4,0.4-0.6,0.6c-2.8,5.3-2.1,11.6,5.3,13.4
		c7.4,1.8,15,11.9,25.3,9.8c10.4-2.1,7.8-3.9,11.7-6.2c3.9-2.4,8-3.7,8.2-7.1C104.6,53.3,101.5,52.8,98.5,48.5z"/>
	<path fill="none" stroke="#231F20" stroke-width="2.0124" stroke-miterlimit="10" d="M54.5,46.3c0.8,2.1,2.2,4.7,7.8,3.2
		c9.3-2.5,18,0,23.8-4c1.5-1,2.8-2.3,3.9-3.8"/>
</g>
<g>
</g>
<g>
</g>
<g>
</g>
<g>
</g>
<g>
</g>
<g>
</g>
</svg>
